<?xml version="1.0" standalone="no"?><!DOCTYPE svg PUBLIC "-//W3C//DTD SVG 1.1//EN" "http://www.w3.org/Graphics/SVG/1.1/DTD/svg11.dtd"><svg t="1707835111965" class="icon" viewBox="0 0 1024 1024" version="1.1" xmlns="http://www.w3.org/2000/svg" p-id="993" xmlns:xlink="http://www.w3.org/1999/xlink" width="200" height="200"><path d="M554.8544 919.7568a46.6944 46.6944 0 0 1-22.8864-5.5808c-23.8592-13.2608-30.72-51.2-25.6-71.68 17.1008-62.1568 2.9696-96.9728-52.1728-128.3072C414.72 691.456 380.928 660.1728 348.16 629.76c-16.6912-15.36-32.4608-30.1568-49.1008-43.776a33.2288 33.2288 0 0 0-11.6736-5.9904 459.8784 459.8784 0 0 0-45.6192 13.9264c-13.312 4.5568-27.0336 9.216-41.3184 13.056-1.8432 0.4608-45.6192 11.776-65.2288-14.848a70.7584 70.7584 0 0 1-5.7344-67.072c39.168-81.5104 101.4272-144.0256 184.9856-185.856a144.7424 144.7424 0 0 0 50.5344-43.3152c107.52-149.7088 254.208-223.1808 436.224-218.3168 19.4048 0.512 78.0288 2.048 88.7296 67.9424 2.56 11.264 36.864 168.1408-5.6832 292.8128 0 0.512-0.4096 0.9728-0.5632 1.4848-17.664 60.416-48.0768 112.64-101.2736 173.4656-21.4528 24.576-37.2736 47.5136-44.6976 79.616a365.568 365.568 0 0 1-134.2464 209.3568 85.5552 85.5552 0 0 1-48.64 17.5104z m-267.776-401.152a86.3232 86.3232 0 0 1 51.2 20.0192c18.0224 14.848 35.2768 30.72 51.9168 46.08 31.3856 29.1328 61.0304 56.6784 94.6688 75.776 78.08 44.3904 104.448 105.4208 82.688 191.7952a305.2032 305.2032 0 0 0 110.3872-173.312c10.9056-47.3088 35.584-80.2304 58.2144-106.1888 47.7184-54.6816 74.4448-100.3008 89.2928-152.6272a29.3376 29.3376 0 0 1 1.536-4.1984c34.2528-103.5776 6.7584-239.9232 3.3792-255.6416a37.12 37.12 0 0 1-0.8704-3.9936c-1.6896-11.8272-2.4064-16.7424-29.7984-17.4592-162.816-4.096-288.6144 58.9312-384.9728 192.9728A206.336 206.336 0 0 1 341.9648 394.24C271.36 429.5168 220.8256 479.5392 187.1872 547.0208c11.3664-3.1744 22.7328-7.0656 34.7648-11.1104a478.3104 478.3104 0 0 1 54.0672-16.128 50.432 50.432 0 0 1 11.0592-1.1776z m-101.376 38.8608z" fill="#00A0E9" p-id="994"></path><path d="M231.5776 936.192A66.9696 66.9696 0 0 1 189.44 921.088a65.28 65.28 0 0 1-23.0912-68.096c5.12-20.1728 33.536-122.88 67.84-165.3248 15.872-19.6608 42.4448-30.72 72.9088-30.72a120.064 120.064 0 0 1 74.496 25.0368l0.3072 0.256c40.0384 32.3072 59.7504 102.912 25.6 145.5104-26.112 32.6656-95.1808 74.9568-146.3808 101.2224a64.4608 64.4608 0 0 1-29.5424 7.2192zM307.2 718.1824c-11.3152 0-21.1968 3.1744-25.1904 8.0896-16.3328 20.48-39.4752 78.7456-56.32 142.336a4.8128 4.8128 0 0 0 2.2016 4.608 5.12 5.12 0 0 0 5.12 1.1264c56.32-29.0816 111.1552-65.7408 126.8736-85.1968 9.0112-11.1104 2.3552-43.52-15.36-58.5216l-0.7168-0.5632-0.4608-0.3584-0.8192-0.7168a60.16 60.16 0 0 0-35.328-10.8032z m76.8 90.2656z m-4.6592-128.512z m0 0z m0 0z m0 0zM632.6272 517.7344a128 128 0 1 1 128-128 128 128 0 0 1-128 128z m0-194.56a66.56 66.56 0 1 0 66.56 66.56 66.56 66.56 0 0 0-66.56-66.7136z" fill="#F39800" p-id="995"></path></svg>